<svg width="1441" height="632" viewBox="0 0 1441 632" fill="none" xmlns="http://www.w3.org/2000/svg">
    <g opacity="0.1">
        <path
            d="M1.34857 153.735C36.5577 180.428 134.799 232.351 246.089 226.5C385.201 219.185 466.974 152.987 581.632 151.933C696.291 150.879 756.646 241.517 881.39 239.399C1006.13 237.281 1121.76 167.511 1240.86 201.478C1359.96 235.445 1415.44 264.556 1509.3 239.933"
            stroke="#2C4362" />
        <path
            d="M-70.977 360.461C-20.4985 357.24 66.3041 355.754 160.608 358.645C255.981 361.588 356.185 368.595 436.135 390.732C629.45 445.472 695.689 484.208 872.944 482.161C1050.2 480.114 1052.17 440.599 1207.56 480.813C1332.72 513.335 1426.58 591.725 1461.21 625.838"
            stroke="#F7F8F9" stroke-width="2.92308" />
        <path
            d="M-68.287 352.233C-18.6638 350.14 68.1467 350.813 163.154 353.421C260.303 356.124 360.302 360.155 441.775 381.498C632.33 433.699 697.91 474.454 873.017 472.2C1048.12 469.947 1054.83 429.687 1208.77 469.496C1333.63 502.037 1426.31 578.295 1463.73 610.295"
            stroke="#EFF1F3" stroke-width="2.84615" />
        <path
            d="M-65.5783 344.013C-16.7906 343.053 70.0654 345.887 165.775 348.206C264.699 350.654 364.448 351.711 447.435 372.248C635.194 421.936 700.151 464.715 873.111 462.272C1046.07 459.829 1057.5 418.784 1209.99 458.201C1334.56 490.766 1426.03 564.904 1466.2 594.769"
            stroke="#E7E9ED" stroke-width="2.76923" />
        <path
            d="M-62.8507 335.8C-14.8786 335.981 72.0605 340.974 168.471 342.999C269.168 345.179 368.623 343.264 453.113 362.983C638.042 410.182 702.411 454.992 873.227 452.377C1044.04 449.762 1060.19 407.892 1211.22 446.931C1335.5 479.522 1425.73 551.551 1468.63 579.262"
            stroke="#DFE2E7" stroke-width="2.69231" />
        <path
            d="M-60.1039 327.597C-12.9274 328.925 74.1323 336.077 171.242 337.802C273.712 339.699 372.827 334.815 458.809 353.704C640.876 398.438 704.691 445.285 873.365 442.515C1042.04 439.745 1062.88 397.013 1212.46 435.685C1336.45 468.306 1425.42 538.24 1471 563.774"
            stroke="#D6DBE1" stroke-width="2.61538" />
        <path
            d="M-57.3385 319.403C-10.9375 321.884 76.2805 331.194 174.088 332.613C278.328 334.214 377.06 326.363 464.524 344.412C643.693 386.706 706.99 435.595 873.526 432.688C1040.06 429.78 1065.59 386.144 1213.71 424.464C1337.42 457.118 1425.09 524.969 1473.33 548.307"
            stroke="#CED4DB" stroke-width="2.53846" />
        <path
            d="M-54.5539 311.216C-8.90833 314.857 78.5056 326.324 177.008 327.432C283.018 328.721 381.322 317.907 470.257 335.104C646.496 374.982 709.309 425.921 873.711 422.892C1038.11 419.864 1068.31 375.287 1214.98 413.266C1338.41 445.957 1424.75 511.738 1475.6 532.858"
            stroke="#C6CCD5" stroke-width="2.46154" />
        <path
            d="M-51.7501 303.039C-6.83984 307.845 80.8075 321.467 180.004 322.259C287.781 323.222 385.613 309.449 476.008 325.782C649.284 363.27 711.648 416.262 873.918 413.13C1036.19 409.998 1071.04 364.44 1216.26 402.092C1339.42 434.823 1424.39 498.547 1477.83 517.429"
            stroke="#BEC5CF" stroke-width="2.38462" />
        <path
            d="M-48.9272 294.867C-4.73186 300.846 83.1864 316.622 183.075 317.091C292.618 317.715 389.933 300.984 481.777 316.444C652.056 351.566 714.007 406.617 874.15 403.399C1034.29 400.18 1073.78 353.603 1217.54 390.94C1340.44 423.715 1424.02 485.395 1480.01 502.019"
            stroke="#B6BEC9" stroke-width="2.30769" />
        <path
            d="M-46.0852 286.705C-2.58435 293.861 85.6424 311.789 186.221 311.931C297.528 312.201 394.281 292.517 487.563 307.091C654.814 339.874 716.387 396.989 874.406 393.701C1032.43 390.413 1076.54 342.777 1218.85 379.813C1341.48 412.634 1423.64 472.283 1482.15 486.63"
            stroke="#AEB7C3" stroke-width="2.23077" />
        <path
            d="M-43.2237 278.549C-0.397048 286.888 88.1757 306.966 189.442 306.774C302.511 306.676 398.658 284.045 493.366 297.722C657.557 328.19 718.787 387.374 874.687 384.034C1030.59 380.693 1079.31 331.96 1220.16 368.708C1342.53 401.578 1423.25 459.21 1484.23 471.26"
            stroke="#A6B0BC" stroke-width="2.15385" />
        <path
            d="M-40.3429 270.402C1.8301 279.931 90.7863 302.156 192.738 301.625C307.566 301.145 403.063 275.569 499.186 288.339C660.286 316.519 721.208 377.776 874.992 374.4C1028.78 371.024 1082.1 321.154 1221.49 357.627C1343.61 390.55 1422.84 446.179 1486.27 455.912"
            stroke="#9EA8B6" stroke-width="2.07692" />
        <path
            d="M-37.4425 262.262C4.09737 272.985 93.4745 297.356 196.11 296.481C312.695 295.604 407.497 267.088 505.024 278.939C662.999 304.857 723.649 368.192 875.324 364.797C1027 361.402 1084.89 310.358 1222.83 346.569C1344.7 379.547 1422.42 433.186 1488.26 440.584"
            stroke="#95A1B0" stroke-width="2" />
        <path
            d="M-34.5228 254.129C6.4046 266.052 96.2401 292.565 199.556 291.34C317.895 290.053 411.959 258.602 510.877 269.524C665.699 293.205 726.112 358.622 875.68 355.225C1025.25 351.828 1087.7 299.572 1224.18 335.532C1345.81 368.57 1421.99 420.233 1490.21 425.276"
            stroke="#8D9AAA" stroke-width="1.92308" />
        <path
            d="M-31.5836 246.004C8.75207 259.132 99.0833 287.784 203.079 286.204C323.169 284.492 416.449 250.111 516.748 260.093C668.383 281.564 728.595 349.066 876.063 345.685C1023.53 342.303 1090.52 288.795 1225.55 324.519C1346.94 357.618 1421.55 407.32 1492.11 409.989"
            stroke="#8593A4" stroke-width="1.84615" />
        <path
            d="M-28.6248 237.885C11.1398 252.224 102.004 283.012 206.676 281.071C328.514 278.92 420.968 241.615 522.634 250.646C671.054 269.934 731.1 339.525 876.472 336.175C1021.84 332.825 1093.36 278.028 1226.93 313.528C1348.09 346.692 1421.1 394.447 1493.96 394.724"
            stroke="#7D8C9E" stroke-width="1.76923" />
        <path
            d="M-25.6463 229.775C13.5681 245.328 105.003 278.249 210.349 275.942C333.931 273.338 425.514 233.114 528.536 241.183C673.71 258.314 733.626 329.998 876.908 326.697C1020.19 323.395 1096.21 267.271 1228.33 302.56C1349.25 335.792 1420.64 381.614 1495.77 379.48"
            stroke="#758498" stroke-width="1.69231" />
        <path
            d="M-22.6482 221.669C16.0369 238.442 108.079 273.493 214.097 270.813C339.421 267.743 430.088 224.605 534.454 231.702C676.352 246.703 736.174 320.484 877.371 317.247C1018.57 314.011 1099.07 256.521 1229.74 291.612C1350.44 324.914 1420.17 368.819 1497.53 364.256"
            stroke="#6D7D92" stroke-width="1.61538" />
        <path
            d="M-19.6322 213.56C18.5445 231.558 111.232 268.733 217.918 265.677C344.98 262.125 434.689 216.081 540.385 222.195C678.978 235.093 738.741 310.972 877.86 307.818C1016.98 304.663 1101.95 245.77 1231.16 280.675C1351.64 314.051 1419.69 356.053 1499.24 349.043"
            stroke="#65768C" stroke-width="1.53846" />
        <path
            d="M-16.6131 205.354C21.0762 224.582 114.446 263.878 221.798 260.439C350.594 256.392 439.3 207.447 546.316 212.568C681.574 223.39 741.314 301.371 878.359 298.315C1015.4 295.259 1104.82 234.924 1232.58 269.658C1352.85 303.11 1419.19 343.223 1500.89 333.749"
            stroke="#5D6F86" stroke-width="1.46154" />
        <path
            d="M-13.5966 197.035C23.6264 217.496 117.715 258.909 225.731 255.081C356.258 250.525 443.917 198.686 552.238 202.804C684.134 211.577 743.886 291.662 878.865 288.722C1013.84 285.781 1107.68 223.967 1233.99 258.541C1354.06 292.072 1418.65 330.313 1502.48 318.356"
            stroke="#556780" stroke-width="1.38462" />
        <path
            d="M-10.5853 188.602C26.1925 210.301 121.038 253.826 229.714 249.605C361.967 244.525 448.536 189.799 558.151 192.903C686.654 199.655 746.456 281.847 879.374 279.038C1012.29 276.229 1110.53 212.899 1235.4 247.325C1355.26 280.938 1418.09 317.322 1503.99 302.866"
            stroke="#4C607A" stroke-width="1.30769" />
        <path
            d="M-7.58243 180.054C28.7713 202.996 124.41 248.629 233.744 244.008C367.719 238.39 453.154 180.785 564.049 182.865C689.133 187.623 749.019 271.924 879.883 269.263C1010.75 266.602 1113.37 201.718 1236.79 236.011C1356.45 269.708 1417.48 304.25 1505.43 287.277"
            stroke="#445974" stroke-width="1.23077" />
        <path
            d="M-4.59078 171.393C31.3601 195.581 127.829 243.316 237.819 238.29C373.51 232.121 457.768 171.644 569.931 172.689C691.567 175.482 751.573 261.893 880.391 259.397C1009.21 256.901 1116.19 190.425 1238.17 224.597C1357.64 258.381 1416.84 291.097 1506.8 271.591"
            stroke="#3C526E" stroke-width="1.15385" />
        <path
            d="M-1.6129 162.62C33.9565 188.058 131.293 237.89 241.934 232.454C379.339 225.719 462.375 162.378 575.793 162.378C693.954 163.233 754.117 251.757 880.894 249.442C1007.67 247.127 1118.99 179.022 1239.52 213.085C1358.81 246.96 1416.16 277.865 1508.09 255.809"
            stroke="#344B68" stroke-width="1.07692" />
    </g>
</svg>